<?xml version="1.0" standalone="no"?>
<!DOCTYPE svg PUBLIC "-//W3C//DTD SVG 20010904//EN"
 "http://www.w3.org/TR/2001/REC-SVG-20010904/DTD/svg10.dtd">
<svg version="1.0" xmlns="http://www.w3.org/2000/svg"
 width="512.000000pt" height="512.000000pt" viewBox="0 0 512.000000 512.000000"
 preserveAspectRatio="xMidYMid meet">
<metadata>
Created by potrace 1.16, written by Peter Selinger 2001-2019
</metadata>
<g transform="translate(0.000000,512.000000) scale(0.100000,-0.100000)"
fill="#000000" stroke="none">
<path d="M1246 2363 c-16 -16 -36 -77 -36 -107 1 -45 30 -97 69 -123 40 -27
116 -31 159 -9 15 8 71 60 125 115 l99 101 -212 0 c-188 0 -211 2 -200 15 13
15 9 21 -4 8z"/>
<path d="M565 1481 c-269 -66 -485 -285 -550 -558 -26 -108 -17 -312 18 -412
45 -124 92 -199 191 -296 104 -104 205 -161 340 -195 78 -20 117 -20 1996 -20
1879 0 1918 0 1996 20 43 11 117 39 164 62 69 34 103 60 180 138 78 77 104
111 138 180 58 117 82 218 82 347 0 135 -21 226 -78 343 -39 81 -60 109 -137
185 -101 101 -180 152 -300 193 l-80 27 -1945 2 c-1817 2 -1950 1 -2015 -16z
m3854 -291 c153 -20 288 -118 354 -257 30 -64 32 -74 32 -183 0 -109 -2 -119
-32 -183 -66 -139 -201 -237 -354 -257 -100 -13 -3618 -13 -3718 0 -153 20
-288 118 -354 257 -30 64 -32 74 -32 183 0 109 2 119 32 183 64 135 202 238
345 256 91 12 3636 13 3727 1z"/>
<path d="M679 877 c-90 -60 -90 -194 0 -254 33 -22 43 -23 236 -23 193 0 203
1 236 23 90 60 90 194 0 254 -33 22 -43 23 -236 23 -193 0 -203 -1 -236 -23z"/>
</g>
</svg>
